<mxfile host="app.diagrams.net" modified="2023-08-21T11:47:10.062Z" agent="Mozilla/5.0 (Windows NT 10.0; Win64; x64) AppleWebKit/537.36 (KHTML, like Gecko) Chrome/116.0.0.0 Safari/537.36" etag="a5mznt8uxkyQYa3H7FSD" version="21.6.6" type="github">
  <diagram id="C5RBs43oDa-KdzZeNtuy" name="Page-1">
    <mxGraphModel dx="1430" dy="766" grid="1" gridSize="10" guides="1" tooltips="1" connect="1" arrows="1" fold="1" page="1" pageScale="1" pageWidth="827" pageHeight="1169" math="0" shadow="0">
      <root>
        <mxCell id="WIyWlLk6GJQsqaUBKTNV-0" />
        <mxCell id="WIyWlLk6GJQsqaUBKTNV-1" parent="WIyWlLk6GJQsqaUBKTNV-0" />
        <mxCell id="OEdfGyyhnwk8HbZ2HHU5-15" style="edgeStyle=orthogonalEdgeStyle;rounded=0;orthogonalLoop=1;jettySize=auto;html=1;entryX=0.5;entryY=0;entryDx=0;entryDy=0;entryPerimeter=0;" edge="1" parent="WIyWlLk6GJQsqaUBKTNV-1" source="OEdfGyyhnwk8HbZ2HHU5-0" target="OEdfGyyhnwk8HbZ2HHU5-4">
          <mxGeometry relative="1" as="geometry" />
        </mxCell>
        <mxCell id="OEdfGyyhnwk8HbZ2HHU5-0" value="Anlage sicher" style="rounded=1;whiteSpace=wrap;html=1;" vertex="1" parent="WIyWlLk6GJQsqaUBKTNV-1">
          <mxGeometry x="280" y="40" width="120" height="40" as="geometry" />
        </mxCell>
        <mxCell id="OEdfGyyhnwk8HbZ2HHU5-11" style="edgeStyle=orthogonalEdgeStyle;rounded=0;orthogonalLoop=1;jettySize=auto;html=1;exitX=1;exitY=0.5;exitDx=0;exitDy=0;exitPerimeter=0;entryX=0.5;entryY=0;entryDx=0;entryDy=0;" edge="1" parent="WIyWlLk6GJQsqaUBKTNV-1" source="OEdfGyyhnwk8HbZ2HHU5-4" target="OEdfGyyhnwk8HbZ2HHU5-6">
          <mxGeometry relative="1" as="geometry" />
        </mxCell>
        <mxCell id="OEdfGyyhnwk8HbZ2HHU5-18" value="nein" style="edgeLabel;html=1;align=center;verticalAlign=middle;resizable=0;points=[];" vertex="1" connectable="0" parent="OEdfGyyhnwk8HbZ2HHU5-11">
          <mxGeometry x="-0.5747" y="1" relative="1" as="geometry">
            <mxPoint x="24" y="1" as="offset" />
          </mxGeometry>
        </mxCell>
        <mxCell id="OEdfGyyhnwk8HbZ2HHU5-12" style="edgeStyle=orthogonalEdgeStyle;rounded=0;orthogonalLoop=1;jettySize=auto;html=1;exitX=0;exitY=0.5;exitDx=0;exitDy=0;exitPerimeter=0;entryX=0.5;entryY=0;entryDx=0;entryDy=0;" edge="1" parent="WIyWlLk6GJQsqaUBKTNV-1" source="OEdfGyyhnwk8HbZ2HHU5-4" target="OEdfGyyhnwk8HbZ2HHU5-9">
          <mxGeometry relative="1" as="geometry">
            <mxPoint x="240" y="340" as="targetPoint" />
            <Array as="points">
              <mxPoint x="200" y="150" />
              <mxPoint x="200" y="290" />
              <mxPoint x="340" y="290" />
            </Array>
          </mxGeometry>
        </mxCell>
        <mxCell id="OEdfGyyhnwk8HbZ2HHU5-17" value="ja" style="edgeLabel;html=1;align=center;verticalAlign=middle;resizable=0;points=[];" vertex="1" connectable="0" parent="OEdfGyyhnwk8HbZ2HHU5-12">
          <mxGeometry x="-0.8414" y="1" relative="1" as="geometry">
            <mxPoint x="-19" y="-1" as="offset" />
          </mxGeometry>
        </mxCell>
        <mxCell id="OEdfGyyhnwk8HbZ2HHU5-4" value="Anlage&lt;br&gt;gerichtet?" style="strokeWidth=2;html=1;shape=mxgraph.flowchart.decision;whiteSpace=wrap;" vertex="1" parent="WIyWlLk6GJQsqaUBKTNV-1">
          <mxGeometry x="290" y="100" width="100" height="100" as="geometry" />
        </mxCell>
        <mxCell id="OEdfGyyhnwk8HbZ2HHU5-14" style="edgeStyle=orthogonalEdgeStyle;rounded=0;orthogonalLoop=1;jettySize=auto;html=1;entryX=0.5;entryY=0;entryDx=0;entryDy=0;" edge="1" parent="WIyWlLk6GJQsqaUBKTNV-1" source="OEdfGyyhnwk8HbZ2HHU5-6" target="OEdfGyyhnwk8HbZ2HHU5-7">
          <mxGeometry relative="1" as="geometry" />
        </mxCell>
        <mxCell id="OEdfGyyhnwk8HbZ2HHU5-6" value="Richtbefehl abwarten" style="rounded=1;whiteSpace=wrap;html=1;" vertex="1" parent="WIyWlLk6GJQsqaUBKTNV-1">
          <mxGeometry x="420" y="180" width="120" height="40" as="geometry" />
        </mxCell>
        <mxCell id="OEdfGyyhnwk8HbZ2HHU5-13" style="edgeStyle=orthogonalEdgeStyle;rounded=0;orthogonalLoop=1;jettySize=auto;html=1;entryX=0.5;entryY=0;entryDx=0;entryDy=0;exitX=0.5;exitY=1;exitDx=0;exitDy=0;" edge="1" parent="WIyWlLk6GJQsqaUBKTNV-1" source="OEdfGyyhnwk8HbZ2HHU5-7" target="OEdfGyyhnwk8HbZ2HHU5-9">
          <mxGeometry relative="1" as="geometry">
            <Array as="points">
              <mxPoint x="480" y="290" />
              <mxPoint x="340" y="290" />
            </Array>
          </mxGeometry>
        </mxCell>
        <mxCell id="OEdfGyyhnwk8HbZ2HHU5-16" value="Analge betriebsbereit" style="edgeLabel;html=1;align=center;verticalAlign=middle;resizable=0;points=[];" vertex="1" connectable="0" parent="OEdfGyyhnwk8HbZ2HHU5-13">
          <mxGeometry x="0.6901" relative="1" as="geometry">
            <mxPoint x="-7" y="-10" as="offset" />
          </mxGeometry>
        </mxCell>
        <mxCell id="OEdfGyyhnwk8HbZ2HHU5-7" value="Richten" style="rounded=1;whiteSpace=wrap;html=1;" vertex="1" parent="WIyWlLk6GJQsqaUBKTNV-1">
          <mxGeometry x="420" y="240" width="120" height="40" as="geometry" />
        </mxCell>
        <mxCell id="OEdfGyyhnwk8HbZ2HHU5-22" style="edgeStyle=orthogonalEdgeStyle;rounded=0;orthogonalLoop=1;jettySize=auto;html=1;entryX=0.5;entryY=0;entryDx=0;entryDy=0;exitX=0.25;exitY=1;exitDx=0;exitDy=0;" edge="1" parent="WIyWlLk6GJQsqaUBKTNV-1" source="OEdfGyyhnwk8HbZ2HHU5-9" target="OEdfGyyhnwk8HbZ2HHU5-20">
          <mxGeometry relative="1" as="geometry">
            <Array as="points">
              <mxPoint x="310" y="360" />
              <mxPoint x="200" y="360" />
            </Array>
          </mxGeometry>
        </mxCell>
        <mxCell id="OEdfGyyhnwk8HbZ2HHU5-23" style="edgeStyle=orthogonalEdgeStyle;rounded=0;orthogonalLoop=1;jettySize=auto;html=1;exitX=0.75;exitY=1;exitDx=0;exitDy=0;entryX=0.5;entryY=0;entryDx=0;entryDy=0;" edge="1" parent="WIyWlLk6GJQsqaUBKTNV-1" source="OEdfGyyhnwk8HbZ2HHU5-9" target="OEdfGyyhnwk8HbZ2HHU5-19">
          <mxGeometry relative="1" as="geometry">
            <Array as="points">
              <mxPoint x="370" y="360" />
              <mxPoint x="480" y="360" />
            </Array>
          </mxGeometry>
        </mxCell>
        <mxCell id="OEdfGyyhnwk8HbZ2HHU5-9" value="Startbefehl abwarten" style="rounded=1;whiteSpace=wrap;html=1;" vertex="1" parent="WIyWlLk6GJQsqaUBKTNV-1">
          <mxGeometry x="280" y="310" width="120" height="40" as="geometry" />
        </mxCell>
        <mxCell id="OEdfGyyhnwk8HbZ2HHU5-27" style="edgeStyle=orthogonalEdgeStyle;rounded=0;orthogonalLoop=1;jettySize=auto;html=1;entryX=0.5;entryY=0;entryDx=0;entryDy=0;exitX=0.5;exitY=1;exitDx=0;exitDy=0;" edge="1" parent="WIyWlLk6GJQsqaUBKTNV-1" source="OEdfGyyhnwk8HbZ2HHU5-19" target="OEdfGyyhnwk8HbZ2HHU5-25">
          <mxGeometry relative="1" as="geometry">
            <mxPoint x="480" y="550" as="sourcePoint" />
            <mxPoint x="370" y="640" as="targetPoint" />
            <Array as="points">
              <mxPoint x="480" y="490" />
              <mxPoint x="340" y="490" />
            </Array>
          </mxGeometry>
        </mxCell>
        <mxCell id="OEdfGyyhnwk8HbZ2HHU5-19" value="Oberes Bauteil vorbereiten" style="rounded=1;whiteSpace=wrap;html=1;" vertex="1" parent="WIyWlLk6GJQsqaUBKTNV-1">
          <mxGeometry x="420" y="410" width="120" height="40" as="geometry" />
        </mxCell>
        <mxCell id="OEdfGyyhnwk8HbZ2HHU5-36" style="edgeStyle=orthogonalEdgeStyle;rounded=0;orthogonalLoop=1;jettySize=auto;html=1;entryX=0.5;entryY=0;entryDx=0;entryDy=0;" edge="1" parent="WIyWlLk6GJQsqaUBKTNV-1" source="OEdfGyyhnwk8HbZ2HHU5-20" target="OEdfGyyhnwk8HbZ2HHU5-21">
          <mxGeometry relative="1" as="geometry" />
        </mxCell>
        <mxCell id="OEdfGyyhnwk8HbZ2HHU5-20" value="Unteres Bauteil auf WT platzieren" style="rounded=1;whiteSpace=wrap;html=1;" vertex="1" parent="WIyWlLk6GJQsqaUBKTNV-1">
          <mxGeometry x="140" y="380" width="120" height="40" as="geometry" />
        </mxCell>
        <mxCell id="OEdfGyyhnwk8HbZ2HHU5-26" style="edgeStyle=orthogonalEdgeStyle;rounded=0;orthogonalLoop=1;jettySize=auto;html=1;entryX=0.5;entryY=0;entryDx=0;entryDy=0;" edge="1" parent="WIyWlLk6GJQsqaUBKTNV-1" source="OEdfGyyhnwk8HbZ2HHU5-21" target="OEdfGyyhnwk8HbZ2HHU5-25">
          <mxGeometry relative="1" as="geometry">
            <Array as="points">
              <mxPoint x="200" y="490" />
              <mxPoint x="340" y="490" />
            </Array>
          </mxGeometry>
        </mxCell>
        <mxCell id="OEdfGyyhnwk8HbZ2HHU5-21" value="WT auf Position &quot;Hochzeit&quot; fahren" style="rounded=1;whiteSpace=wrap;html=1;" vertex="1" parent="WIyWlLk6GJQsqaUBKTNV-1">
          <mxGeometry x="140" y="440" width="120" height="40" as="geometry" />
        </mxCell>
        <mxCell id="OEdfGyyhnwk8HbZ2HHU5-29" style="edgeStyle=orthogonalEdgeStyle;rounded=0;orthogonalLoop=1;jettySize=auto;html=1;entryX=0.5;entryY=0;entryDx=0;entryDy=0;" edge="1" parent="WIyWlLk6GJQsqaUBKTNV-1" source="OEdfGyyhnwk8HbZ2HHU5-25" target="OEdfGyyhnwk8HbZ2HHU5-28">
          <mxGeometry relative="1" as="geometry" />
        </mxCell>
        <mxCell id="OEdfGyyhnwk8HbZ2HHU5-25" value="Murmel vorbereiten und auf WT platzieren" style="rounded=1;whiteSpace=wrap;html=1;" vertex="1" parent="WIyWlLk6GJQsqaUBKTNV-1">
          <mxGeometry x="280" y="510" width="120" height="40" as="geometry" />
        </mxCell>
        <mxCell id="OEdfGyyhnwk8HbZ2HHU5-33" style="edgeStyle=orthogonalEdgeStyle;rounded=0;orthogonalLoop=1;jettySize=auto;html=1;entryX=0.5;entryY=0;entryDx=0;entryDy=0;" edge="1" parent="WIyWlLk6GJQsqaUBKTNV-1" source="OEdfGyyhnwk8HbZ2HHU5-28" target="OEdfGyyhnwk8HbZ2HHU5-30">
          <mxGeometry relative="1" as="geometry" />
        </mxCell>
        <mxCell id="OEdfGyyhnwk8HbZ2HHU5-28" value="Oberes Bauteil auf WT platzieren" style="rounded=1;whiteSpace=wrap;html=1;" vertex="1" parent="WIyWlLk6GJQsqaUBKTNV-1">
          <mxGeometry x="280" y="570" width="120" height="40" as="geometry" />
        </mxCell>
        <mxCell id="OEdfGyyhnwk8HbZ2HHU5-34" style="edgeStyle=orthogonalEdgeStyle;rounded=0;orthogonalLoop=1;jettySize=auto;html=1;entryX=0.5;entryY=0;entryDx=0;entryDy=0;" edge="1" parent="WIyWlLk6GJQsqaUBKTNV-1" source="OEdfGyyhnwk8HbZ2HHU5-30" target="OEdfGyyhnwk8HbZ2HHU5-31">
          <mxGeometry relative="1" as="geometry" />
        </mxCell>
        <mxCell id="OEdfGyyhnwk8HbZ2HHU5-30" value="WT auf Position &quot;HRL&quot; fahren" style="rounded=1;whiteSpace=wrap;html=1;" vertex="1" parent="WIyWlLk6GJQsqaUBKTNV-1">
          <mxGeometry x="280" y="630" width="120" height="40" as="geometry" />
        </mxCell>
        <mxCell id="OEdfGyyhnwk8HbZ2HHU5-37" style="edgeStyle=orthogonalEdgeStyle;rounded=0;orthogonalLoop=1;jettySize=auto;html=1;entryX=0;entryY=0.5;entryDx=0;entryDy=0;" edge="1" parent="WIyWlLk6GJQsqaUBKTNV-1" source="OEdfGyyhnwk8HbZ2HHU5-31" target="OEdfGyyhnwk8HbZ2HHU5-32">
          <mxGeometry relative="1" as="geometry" />
        </mxCell>
        <mxCell id="OEdfGyyhnwk8HbZ2HHU5-31" value="Werkstück in HRL einordnen" style="rounded=1;whiteSpace=wrap;html=1;" vertex="1" parent="WIyWlLk6GJQsqaUBKTNV-1">
          <mxGeometry x="280" y="690" width="120" height="40" as="geometry" />
        </mxCell>
        <mxCell id="OEdfGyyhnwk8HbZ2HHU5-38" style="edgeStyle=orthogonalEdgeStyle;rounded=0;orthogonalLoop=1;jettySize=auto;html=1;entryX=1;entryY=0.5;entryDx=0;entryDy=0;" edge="1" parent="WIyWlLk6GJQsqaUBKTNV-1" source="OEdfGyyhnwk8HbZ2HHU5-32" target="OEdfGyyhnwk8HbZ2HHU5-9">
          <mxGeometry relative="1" as="geometry">
            <Array as="points">
              <mxPoint x="560" y="330" />
            </Array>
          </mxGeometry>
        </mxCell>
        <mxCell id="OEdfGyyhnwk8HbZ2HHU5-32" value="Rücksetzen des Prozesses" style="rounded=1;whiteSpace=wrap;html=1;" vertex="1" parent="WIyWlLk6GJQsqaUBKTNV-1">
          <mxGeometry x="500" y="690" width="120" height="40" as="geometry" />
        </mxCell>
      </root>
    </mxGraphModel>
  </diagram>
</mxfile>
